<svg width="229" height="56" viewBox="0 0 229 56" fill="none" xmlns="http://www.w3.org/2000/svg">
<rect x="2.5" y="2.5" width="224" height="51" rx="10.5" stroke="url(#paint0_linear_207_880)" stroke-width="5"/>
<path d="M46 18.25H26.5C24.85 18.25 23.5 19.6 23.5 21.25V34.75C23.5 36.415 24.85 37.75 26.5 37.75H46C47.665 37.75 49 36.415 49 34.75V21.25C49 19.6 47.665 18.25 46 18.25ZM46 34.75H26.5V23.755L36.25 28.75L46 23.755V34.75ZM36.25 26.215L26.5 21.25H46L36.25 26.215ZM20.5 34.75C20.5 35.005 20.545 35.245 20.575 35.5H14.5C13.672 35.5 13 34.825 13 34C13 33.175 13.672 32.5 14.5 32.5H20.5V34.75ZM17.5 20.5H20.575C20.545 20.755 20.5 20.995 20.5 21.25V23.5H17.5C16.675 23.5 16 22.825 16 22C16 21.175 16.675 20.5 17.5 20.5ZM14.5 28C14.5 27.175 15.175 26.5 16 26.5H20.5V29.5H16C15.175 29.5 14.5 28.825 14.5 28Z" fill="white"/>
<path d="M69.3511 32.6006V35H61.4043V32.6006H69.3511ZM62.4092 20.0703V35H59.333V20.0703H62.4092ZM68.3154 26.1509V28.4888H61.4043V26.1509H68.3154ZM69.3408 20.0703V22.48H61.4043V20.0703H69.3408ZM73.8525 26.2739V35H70.8994V23.9053H73.668L73.8525 26.2739ZM73.4219 29.063H72.6221C72.6221 28.2427 72.728 27.5044 72.9399 26.8481C73.1519 26.1851 73.4492 25.6211 73.832 25.1562C74.2148 24.6846 74.6694 24.3257 75.1958 24.0796C75.729 23.8267 76.3237 23.7002 76.98 23.7002C77.4995 23.7002 77.9746 23.7754 78.4053 23.9258C78.8359 24.0762 79.2051 24.3154 79.5127 24.6436C79.8271 24.9717 80.0664 25.4058 80.2305 25.9458C80.4014 26.4858 80.4868 27.1455 80.4868 27.9248V35H77.5132V27.9146C77.5132 27.4224 77.4448 27.0396 77.3081 26.7661C77.1714 26.4927 76.9697 26.3013 76.7031 26.1919C76.4434 26.0757 76.1221 26.0176 75.7393 26.0176C75.3428 26.0176 74.9976 26.0962 74.7036 26.2534C74.4165 26.4106 74.1772 26.6294 73.9858 26.9097C73.8013 27.1831 73.6611 27.5044 73.5654 27.8735C73.4697 28.2427 73.4219 28.6392 73.4219 29.063ZM88.167 23.9053V25.9971H81.707V23.9053H88.167ZM83.3066 21.1675H86.2598V31.6572C86.2598 31.9785 86.3008 32.2246 86.3828 32.3955C86.4717 32.5664 86.6016 32.686 86.7725 32.7544C86.9434 32.8159 87.1587 32.8467 87.4185 32.8467C87.603 32.8467 87.7671 32.8398 87.9106 32.8262C88.061 32.8057 88.1875 32.7852 88.29 32.7646L88.3003 34.9385C88.0474 35.0205 87.7739 35.0854 87.48 35.1333C87.186 35.1812 86.8613 35.2051 86.5059 35.2051C85.8564 35.2051 85.2891 35.0991 84.8037 34.8872C84.3252 34.6685 83.9561 34.3198 83.6963 33.8413C83.4365 33.3628 83.3066 32.7339 83.3066 31.9546V21.1675ZM92.8018 26.3252V35H89.8486V23.9053H92.6274L92.8018 26.3252ZM96.1445 23.8335L96.0933 26.5713C95.9497 26.5508 95.7754 26.5337 95.5703 26.52C95.3721 26.4995 95.1909 26.4893 95.0269 26.4893C94.6099 26.4893 94.2476 26.5439 93.9399 26.6533C93.6392 26.7559 93.3862 26.9097 93.1812 27.1147C92.9829 27.3198 92.8325 27.5693 92.73 27.8633C92.6343 28.1572 92.5796 28.4922 92.5659 28.8682L91.9712 28.6836C91.9712 27.9658 92.043 27.3062 92.1865 26.7046C92.3301 26.0962 92.5386 25.5664 92.812 25.1152C93.0923 24.6641 93.4341 24.3154 93.8374 24.0693C94.2407 23.8232 94.7021 23.7002 95.2217 23.7002C95.3857 23.7002 95.5532 23.7139 95.7241 23.7412C95.895 23.7617 96.0352 23.7925 96.1445 23.8335ZM102.44 35.2051C101.579 35.2051 100.807 35.0684 100.123 34.7949C99.4395 34.5146 98.8584 34.1284 98.3799 33.6362C97.9082 33.144 97.5459 32.5732 97.293 31.9238C97.04 31.2676 96.9136 30.5703 96.9136 29.832V29.4219C96.9136 28.5811 97.0332 27.812 97.2725 27.1147C97.5117 26.4175 97.8535 25.8125 98.2979 25.2998C98.749 24.7871 99.2959 24.394 99.9385 24.1206C100.581 23.8403 101.306 23.7002 102.112 23.7002C102.898 23.7002 103.596 23.8301 104.204 24.0898C104.812 24.3496 105.322 24.7188 105.732 25.1973C106.149 25.6758 106.463 26.25 106.675 26.9199C106.887 27.583 106.993 28.3213 106.993 29.1348V30.3652H98.1748V28.3965H104.091V28.1709C104.091 27.7607 104.016 27.395 103.866 27.0737C103.722 26.7456 103.503 26.4858 103.209 26.2944C102.916 26.103 102.54 26.0073 102.082 26.0073C101.692 26.0073 101.357 26.0928 101.077 26.2637C100.796 26.4346 100.567 26.6738 100.39 26.9814C100.219 27.2891 100.089 27.6514 100 28.0684C99.918 28.4785 99.877 28.9297 99.877 29.4219V29.832C99.877 30.2764 99.9385 30.6865 100.062 31.0625C100.191 31.4385 100.373 31.7632 100.605 32.0366C100.844 32.3101 101.131 32.522 101.466 32.6724C101.808 32.8228 102.194 32.8979 102.625 32.8979C103.158 32.8979 103.654 32.7954 104.112 32.5903C104.577 32.3784 104.977 32.0605 105.312 31.6367L106.747 33.1953C106.515 33.5303 106.197 33.8516 105.793 34.1592C105.397 34.4668 104.918 34.7197 104.358 34.918C103.797 35.1094 103.158 35.2051 102.44 35.2051ZM119.011 35.2051C118.149 35.2051 117.377 35.0684 116.693 34.7949C116.01 34.5146 115.429 34.1284 114.95 33.6362C114.479 33.144 114.116 32.5732 113.863 31.9238C113.61 31.2676 113.484 30.5703 113.484 29.832V29.4219C113.484 28.5811 113.604 27.812 113.843 27.1147C114.082 26.4175 114.424 25.8125 114.868 25.2998C115.319 24.7871 115.866 24.394 116.509 24.1206C117.151 23.8403 117.876 23.7002 118.683 23.7002C119.469 23.7002 120.166 23.8301 120.774 24.0898C121.383 24.3496 121.892 24.7188 122.302 25.1973C122.719 25.6758 123.034 26.25 123.246 26.9199C123.458 27.583 123.563 28.3213 123.563 29.1348V30.3652H114.745V28.3965H120.662V28.1709C120.662 27.7607 120.586 27.395 120.436 27.0737C120.292 26.7456 120.074 26.4858 119.78 26.2944C119.486 26.103 119.11 26.0073 118.652 26.0073C118.262 26.0073 117.927 26.0928 117.647 26.2637C117.367 26.4346 117.138 26.6738 116.96 26.9814C116.789 27.2891 116.659 27.6514 116.57 28.0684C116.488 28.4785 116.447 28.9297 116.447 29.4219V29.832C116.447 30.2764 116.509 30.6865 116.632 31.0625C116.762 31.4385 116.943 31.7632 117.175 32.0366C117.415 32.3101 117.702 32.522 118.037 32.6724C118.378 32.8228 118.765 32.8979 119.195 32.8979C119.729 32.8979 120.224 32.7954 120.682 32.5903C121.147 32.3784 121.547 32.0605 121.882 31.6367L123.317 33.1953C123.085 33.5303 122.767 33.8516 122.364 34.1592C121.967 34.4668 121.489 34.7197 120.928 34.918C120.368 35.1094 119.729 35.2051 119.011 35.2051ZM128.198 26.2021V35H125.235V23.9053H128.014L128.198 26.2021ZM127.788 29.063H126.968C126.968 28.2905 127.06 27.5796 127.245 26.9302C127.436 26.2739 127.713 25.7065 128.075 25.228C128.444 24.7427 128.899 24.3667 129.439 24.1001C129.979 23.8335 130.604 23.7002 131.315 23.7002C131.808 23.7002 132.259 23.7754 132.669 23.9258C133.079 24.0693 133.431 24.2983 133.725 24.6128C134.026 24.9204 134.258 25.3237 134.422 25.8228C134.586 26.3149 134.668 26.9062 134.668 27.5967V35H131.715V27.9248C131.715 27.4189 131.647 27.0293 131.51 26.7559C131.374 26.4824 131.179 26.291 130.926 26.1816C130.68 26.0723 130.382 26.0176 130.034 26.0176C129.651 26.0176 129.316 26.0962 129.029 26.2534C128.749 26.4106 128.516 26.6294 128.332 26.9097C128.147 27.1831 128.01 27.5044 127.921 27.8735C127.833 28.2427 127.788 28.6392 127.788 29.063ZM134.392 28.7246L133.335 28.8579C133.335 28.1333 133.424 27.46 133.602 26.8379C133.787 26.2158 134.057 25.6689 134.412 25.1973C134.774 24.7256 135.222 24.3599 135.755 24.1001C136.289 23.8335 136.904 23.7002 137.601 23.7002C138.134 23.7002 138.62 23.7788 139.057 23.936C139.495 24.0864 139.867 24.3291 140.175 24.6641C140.489 24.9922 140.729 25.4229 140.893 25.9561C141.063 26.4893 141.149 27.1421 141.149 27.9146V35H138.186V27.9146C138.186 27.4019 138.117 27.0122 137.98 26.7456C137.851 26.4722 137.659 26.2842 137.406 26.1816C137.16 26.0723 136.866 26.0176 136.524 26.0176C136.169 26.0176 135.858 26.0894 135.591 26.2329C135.325 26.3696 135.103 26.561 134.925 26.8071C134.747 27.0532 134.614 27.3403 134.525 27.6685C134.436 27.9897 134.392 28.3418 134.392 28.7246ZM153.249 32.8979C153.611 32.8979 153.932 32.8296 154.212 32.6929C154.493 32.5493 154.711 32.3511 154.869 32.0981C155.033 31.8384 155.118 31.5342 155.125 31.1855H157.904C157.897 31.9648 157.688 32.6587 157.278 33.2671C156.868 33.8687 156.318 34.3438 155.627 34.6924C154.937 35.0342 154.165 35.2051 153.31 35.2051C152.449 35.2051 151.697 35.0615 151.054 34.7744C150.418 34.4873 149.889 34.0908 149.465 33.585C149.041 33.0723 148.723 32.4775 148.511 31.8008C148.299 31.1172 148.193 30.3857 148.193 29.6064V29.3091C148.193 28.5229 148.299 27.7915 148.511 27.1147C148.723 26.4312 149.041 25.8364 149.465 25.3306C149.889 24.8179 150.418 24.418 151.054 24.1309C151.69 23.8438 152.435 23.7002 153.29 23.7002C154.199 23.7002 154.995 23.8745 155.679 24.2231C156.369 24.5718 156.909 25.0708 157.299 25.7202C157.695 26.3628 157.897 27.125 157.904 28.0068H155.125C155.118 27.6377 155.04 27.3027 154.889 27.002C154.746 26.7012 154.534 26.4619 154.253 26.2842C153.98 26.0996 153.642 26.0073 153.238 26.0073C152.808 26.0073 152.456 26.0996 152.182 26.2842C151.909 26.4619 151.697 26.708 151.546 27.0225C151.396 27.3301 151.29 27.6821 151.229 28.0786C151.174 28.4683 151.146 28.8784 151.146 29.3091V29.6064C151.146 30.0371 151.174 30.4507 151.229 30.8472C151.283 31.2437 151.386 31.5957 151.536 31.9033C151.693 32.2109 151.909 32.4536 152.182 32.6313C152.456 32.8091 152.811 32.8979 153.249 32.8979ZM159.145 29.5654V29.3501C159.145 28.5366 159.261 27.7881 159.493 27.1045C159.726 26.4141 160.064 25.8159 160.508 25.3101C160.953 24.8042 161.5 24.4111 162.149 24.1309C162.798 23.8438 163.543 23.7002 164.384 23.7002C165.225 23.7002 165.974 23.8438 166.63 24.1309C167.286 24.4111 167.836 24.8042 168.281 25.3101C168.732 25.8159 169.074 26.4141 169.306 27.1045C169.539 27.7881 169.655 28.5366 169.655 29.3501V29.5654C169.655 30.3721 169.539 31.1206 169.306 31.811C169.074 32.4946 168.732 33.0928 168.281 33.6055C167.836 34.1113 167.29 34.5044 166.64 34.7847C165.991 35.0649 165.246 35.2051 164.405 35.2051C163.564 35.2051 162.815 35.0649 162.159 34.7847C161.51 34.5044 160.959 34.1113 160.508 33.6055C160.064 33.0928 159.726 32.4946 159.493 31.811C159.261 31.1206 159.145 30.3721 159.145 29.5654ZM162.098 29.3501V29.5654C162.098 30.0303 162.139 30.4644 162.221 30.8677C162.303 31.271 162.433 31.6265 162.61 31.9341C162.795 32.2349 163.034 32.4707 163.328 32.6416C163.622 32.8125 163.981 32.8979 164.405 32.8979C164.815 32.8979 165.167 32.8125 165.461 32.6416C165.755 32.4707 165.991 32.2349 166.168 31.9341C166.346 31.6265 166.476 31.271 166.558 30.8677C166.647 30.4644 166.691 30.0303 166.691 29.5654V29.3501C166.691 28.8989 166.647 28.4751 166.558 28.0786C166.476 27.6753 166.343 27.3198 166.158 27.0122C165.98 26.6978 165.745 26.4517 165.451 26.2739C165.157 26.0962 164.801 26.0073 164.384 26.0073C163.967 26.0073 163.612 26.0962 163.318 26.2739C163.031 26.4517 162.795 26.6978 162.61 27.0122C162.433 27.3198 162.303 27.6753 162.221 28.0786C162.139 28.4751 162.098 28.8989 162.098 29.3501ZM174.361 26.2739V35H171.408V23.9053H174.177L174.361 26.2739ZM173.931 29.063H173.131C173.131 28.2427 173.237 27.5044 173.449 26.8481C173.661 26.1851 173.958 25.6211 174.341 25.1562C174.724 24.6846 175.178 24.3257 175.705 24.0796C176.238 23.8267 176.833 23.7002 177.489 23.7002C178.008 23.7002 178.483 23.7754 178.914 23.9258C179.345 24.0762 179.714 24.3154 180.021 24.6436C180.336 24.9717 180.575 25.4058 180.739 25.9458C180.91 26.4858 180.996 27.1455 180.996 27.9248V35H178.022V27.9146C178.022 27.4224 177.954 27.0396 177.817 26.7661C177.68 26.4927 177.479 26.3013 177.212 26.1919C176.952 26.0757 176.631 26.0176 176.248 26.0176C175.852 26.0176 175.506 26.0962 175.212 26.2534C174.925 26.4106 174.686 26.6294 174.495 26.9097C174.31 27.1831 174.17 27.5044 174.074 27.8735C173.979 28.2427 173.931 28.6392 173.931 29.063ZM188.676 23.9053V25.9971H182.216V23.9053H188.676ZM183.815 21.1675H186.769V31.6572C186.769 31.9785 186.81 32.2246 186.892 32.3955C186.98 32.5664 187.11 32.686 187.281 32.7544C187.452 32.8159 187.667 32.8467 187.927 32.8467C188.112 32.8467 188.276 32.8398 188.419 32.8262C188.57 32.8057 188.696 32.7852 188.799 32.7646L188.809 34.9385C188.556 35.0205 188.283 35.0854 187.989 35.1333C187.695 35.1812 187.37 35.2051 187.015 35.2051C186.365 35.2051 185.798 35.0991 185.312 34.8872C184.834 34.6685 184.465 34.3198 184.205 33.8413C183.945 33.3628 183.815 32.7339 183.815 31.9546V21.1675ZM196.346 32.498V27.5557C196.346 27.2002 196.288 26.896 196.171 26.6431C196.055 26.3833 195.874 26.1816 195.628 26.0381C195.389 25.8945 195.078 25.8228 194.695 25.8228C194.367 25.8228 194.083 25.8809 193.844 25.9971C193.604 26.1064 193.42 26.2671 193.29 26.479C193.16 26.6841 193.095 26.9268 193.095 27.207H190.142C190.142 26.7354 190.251 26.2876 190.47 25.8638C190.689 25.4399 191.007 25.0674 191.424 24.7461C191.841 24.418 192.336 24.1616 192.911 23.9771C193.492 23.7925 194.141 23.7002 194.859 23.7002C195.72 23.7002 196.486 23.8438 197.156 24.1309C197.826 24.418 198.352 24.8486 198.735 25.4229C199.125 25.9971 199.319 26.7148 199.319 27.5762V32.3237C199.319 32.9321 199.357 33.4312 199.432 33.8208C199.507 34.2036 199.617 34.5386 199.76 34.8257V35H196.776C196.633 34.6992 196.523 34.3232 196.448 33.8721C196.38 33.4141 196.346 32.9561 196.346 32.498ZM196.735 28.2427L196.756 29.9141H195.105C194.715 29.9141 194.377 29.9585 194.09 30.0474C193.803 30.1362 193.567 30.2627 193.382 30.4268C193.198 30.584 193.061 30.7686 192.972 30.9805C192.89 31.1924 192.849 31.4248 192.849 31.6777C192.849 31.9307 192.907 32.1597 193.023 32.3647C193.14 32.563 193.307 32.7202 193.526 32.8364C193.745 32.9458 194.001 33.0005 194.295 33.0005C194.739 33.0005 195.125 32.9116 195.454 32.7339C195.782 32.5562 196.035 32.3374 196.212 32.0776C196.397 31.8179 196.493 31.5718 196.5 31.3394L197.279 32.5903C197.169 32.8706 197.019 33.1611 196.828 33.4619C196.643 33.7627 196.407 34.0464 196.12 34.313C195.833 34.5728 195.488 34.7881 195.084 34.959C194.681 35.123 194.203 35.2051 193.649 35.2051C192.945 35.2051 192.306 35.0649 191.731 34.7847C191.164 34.4976 190.713 34.1045 190.378 33.6055C190.05 33.0996 189.886 32.5254 189.886 31.8828C189.886 31.3018 189.995 30.7856 190.214 30.3345C190.433 29.8833 190.754 29.5039 191.178 29.1963C191.608 28.8818 192.145 28.646 192.788 28.4888C193.43 28.3247 194.175 28.2427 195.023 28.2427H196.735ZM207.03 23.9053V25.9971H200.57V23.9053H207.03ZM202.17 21.1675H205.123V31.6572C205.123 31.9785 205.164 32.2246 205.246 32.3955C205.335 32.5664 205.465 32.686 205.636 32.7544C205.807 32.8159 206.022 32.8467 206.282 32.8467C206.466 32.8467 206.63 32.8398 206.774 32.8262C206.924 32.8057 207.051 32.7852 207.153 32.7646L207.164 34.9385C206.911 35.0205 206.637 35.0854 206.343 35.1333C206.049 35.1812 205.725 35.2051 205.369 35.2051C204.72 35.2051 204.152 35.0991 203.667 34.8872C203.188 34.6685 202.819 34.3198 202.56 33.8413C202.3 33.3628 202.17 32.7339 202.17 31.9546V21.1675ZM207.974 29.5654V29.3501C207.974 28.5366 208.09 27.7881 208.322 27.1045C208.555 26.4141 208.893 25.8159 209.337 25.3101C209.782 24.8042 210.329 24.4111 210.978 24.1309C211.627 23.8438 212.373 23.7002 213.213 23.7002C214.054 23.7002 214.803 23.8438 215.459 24.1309C216.115 24.4111 216.666 24.8042 217.11 25.3101C217.561 25.8159 217.903 26.4141 218.135 27.1045C218.368 27.7881 218.484 28.5366 218.484 29.3501V29.5654C218.484 30.3721 218.368 31.1206 218.135 31.811C217.903 32.4946 217.561 33.0928 217.11 33.6055C216.666 34.1113 216.119 34.5044 215.469 34.7847C214.82 35.0649 214.075 35.2051 213.234 35.2051C212.393 35.2051 211.645 35.0649 210.988 34.7847C210.339 34.5044 209.789 34.1113 209.337 33.6055C208.893 33.0928 208.555 32.4946 208.322 31.811C208.09 31.1206 207.974 30.3721 207.974 29.5654ZM210.927 29.3501V29.5654C210.927 30.0303 210.968 30.4644 211.05 30.8677C211.132 31.271 211.262 31.6265 211.439 31.9341C211.624 32.2349 211.863 32.4707 212.157 32.6416C212.451 32.8125 212.81 32.8979 213.234 32.8979C213.644 32.8979 213.996 32.8125 214.29 32.6416C214.584 32.4707 214.82 32.2349 214.998 31.9341C215.175 31.6265 215.305 31.271 215.387 30.8677C215.476 30.4644 215.521 30.0303 215.521 29.5654V29.3501C215.521 28.8989 215.476 28.4751 215.387 28.0786C215.305 27.6753 215.172 27.3198 214.987 27.0122C214.81 26.6978 214.574 26.4517 214.28 26.2739C213.986 26.0962 213.63 26.0073 213.213 26.0073C212.796 26.0073 212.441 26.0962 212.147 26.2739C211.86 26.4517 211.624 26.6978 211.439 27.0122C211.262 27.3198 211.132 27.6753 211.05 28.0786C210.968 28.4751 210.927 28.8989 210.927 29.3501Z" fill="white"/>
<defs>
<linearGradient id="paint0_linear_207_880" x1="114.5" y1="0" x2="114.5" y2="56" gradientUnits="userSpaceOnUse">
<stop stop-color="#70FF00" stop-opacity="0.55"/>
<stop offset="1" stop-color="white"/>
</linearGradient>
</defs>
</svg>
